<svg width="16" height="18" viewBox="0 0 16 18" fill="none" xmlns="http://www.w3.org/2000/svg">
<path d="M6.8306e-07 18V13C6.8306e-07 12.45 0.196 11.979 0.588 11.587C0.98 11.195 1.45067 10.9993 2 11H14C14.55 11 15.021 11.196 15.413 11.588C15.805 11.98 16.0007 12.4507 16 13V18H6.8306e-07ZM5 10C3.61667 10 2.43733 9.51233 1.462 8.537C0.486667 7.56167 -0.000665984 6.38267 6.8306e-07 5C6.8306e-07 3.61667 0.487667 2.43733 1.463 1.462C2.43833 0.486667 3.61733 -0.000665984 5 6.8306e-07H11C12.3833 6.8306e-07 13.5627 0.487667 14.538 1.463C15.5133 2.43833 16.0007 3.61733 16 5C16 6.38333 15.5123 7.56267 14.537 8.538C13.5617 9.51333 12.3827 10.0007 11 10H5ZM2 16H14V13H2V16ZM5 8H11C11.8333 8 12.5417 7.70833 13.125 7.125C13.7083 6.54167 14 5.83333 14 5C14 4.16667 13.7083 3.45833 13.125 2.875C12.5417 2.29167 11.8333 2 11 2H5C4.16667 2 3.45833 2.29167 2.875 2.875C2.29167 3.45833 2 4.16667 2 5C2 5.83333 2.29167 6.54167 2.875 7.125C3.45833 7.70833 4.16667 8 5 8ZM5 6C5.28333 6 5.521 5.904 5.713 5.712C5.905 5.52 6.00067 5.28267 6 5C6 4.71667 5.904 4.479 5.712 4.287C5.52 4.095 5.28267 3.99933 5 4C4.71667 4 4.479 4.096 4.287 4.288C4.095 4.48 3.99933 4.71733 4 5C4 5.28333 4.096 5.521 4.288 5.713C4.48 5.905 4.71733 6.00067 5 6ZM11 6C11.2833 6 11.521 5.904 11.713 5.712C11.905 5.52 12.0007 5.28267 12 5C12 4.71667 11.904 4.479 11.712 4.287C11.52 4.095 11.2827 3.99933 11 4C10.7167 4 10.479 4.096 10.287 4.288C10.095 4.48 9.99933 4.71733 10 5C10 5.28333 10.096 5.521 10.288 5.713C10.48 5.905 10.7173 6.00067 11 6Z" fill="#1B1B1B"/>
</svg>
